<?xml version="1.0" encoding="UTF-8" standalone="no"?>
<!DOCTYPE svg PUBLIC "-//W3C//DTD SVG 1.1//EN"
 "http://www.w3.org/Graphics/SVG/1.1/DTD/svg11.dtd">
<!-- Generated by graphviz version 2.43.0 (0)
 -->
<!-- Title: fsm Pages: 1 -->
<svg width="403pt" height="193pt"
 viewBox="0.00 0.00 402.56 193.31" xmlns="http://www.w3.org/2000/svg" xmlns:xlink="http://www.w3.org/1999/xlink">
<g id="graph0" class="graph" transform="scale(1 1) rotate(0) translate(4 189.31)">
<title>fsm</title>
<polygon fill="white" stroke="transparent" points="-4,4 -4,-189.31 398.56,-189.31 398.56,4 -4,4"/>
<!-- s3 -->
<g id="node1" class="node">
<title>s3</title>
<ellipse fill="lightyellow" stroke="black" cx="35.82" cy="-58.49" rx="31.66" ry="31.66"/>
<ellipse fill="none" stroke="black" cx="35.82" cy="-58.49" rx="35.64" ry="35.64"/>
<text text-anchor="middle" x="35.82" y="-54.79" font-family="monospace" font-size="14.00">s3</text>
</g>
<!-- s2 -->
<g id="node2" class="node">
<title>s2</title>
<ellipse fill="lightyellow" stroke="black" cx="143.46" cy="-131.49" rx="31.66" ry="31.66"/>
<ellipse fill="none" stroke="black" cx="143.46" cy="-131.49" rx="35.64" ry="35.64"/>
<text text-anchor="middle" x="143.46" y="-127.79" font-family="monospace" font-size="14.00">s2</text>
</g>
<!-- s3&#45;&gt;s2 -->
<g id="edge1" class="edge">
<title>s3&#45;&gt;s2</title>
<path fill="none" stroke="#555555" d="M65.69,-78.44C77.91,-86.89 92.31,-96.84 105.32,-105.83"/>
<polygon fill="#555555" stroke="#555555" points="103.41,-108.77 113.63,-111.57 107.39,-103.01 103.41,-108.77"/>
</g>
<!-- s0 -->
<g id="node3" class="node">
<title>s0</title>
<ellipse fill="lightyellow" stroke="black" cx="358.74" cy="-94.49" rx="31.66" ry="31.66"/>
<ellipse fill="none" stroke="black" cx="358.74" cy="-94.49" rx="35.64" ry="35.64"/>
<text text-anchor="middle" x="358.74" y="-90.79" font-family="monospace" font-size="14.00">s0</text>
</g>
<!-- s3&#45;&gt;s0 -->
<g id="edge2" class="edge">
<title>s3&#45;&gt;s0</title>
<path fill="none" stroke="#555555" d="M67.9,-41.66C116.67,-17.66 213.2,19.97 286.92,-13.49 306.18,-22.24 322.26,-39.1 334.21,-55.19"/>
<polygon fill="#555555" stroke="#555555" points="331.44,-57.33 340.07,-63.48 337.15,-53.29 331.44,-57.33"/>
</g>
<!-- s1 -->
<g id="node4" class="node">
<title>s1</title>
<ellipse fill="lightyellow" stroke="black" cx="251.1" cy="-58.49" rx="31.66" ry="31.66"/>
<ellipse fill="none" stroke="black" cx="251.1" cy="-58.49" rx="35.64" ry="35.64"/>
<text text-anchor="middle" x="251.1" y="-54.79" font-family="monospace" font-size="14.00">s1</text>
</g>
<!-- s3&#45;&gt;s1 -->
<g id="edge9" class="edge">
<title>s3&#45;&gt;s1</title>
<path fill="none" stroke="#555555" d="M71.56,-53.35C107.97,-51.38 165.3,-51.22 205.14,-52.87"/>
<polygon fill="#555555" stroke="#555555" points="205.22,-56.38 215.37,-53.35 205.55,-49.38 205.22,-56.38"/>
</g>
<!-- s2&#45;&gt;s2 -->
<g id="edge8" class="edge">
<title>s2&#45;&gt;s2</title>
<path fill="none" stroke="#555555" d="M123.79,-161.65C122.31,-174.43 128.86,-185.31 143.46,-185.31 153.95,-185.31 160.29,-179.69 162.47,-171.78"/>
<polygon fill="#555555" stroke="#555555" points="165.97,-171.86 163.13,-161.65 158.99,-171.41 165.97,-171.86"/>
</g>
<!-- s2&#45;&gt;s0 -->
<g id="edge3" class="edge">
<title>s2&#45;&gt;s0</title>
<path fill="none" stroke="#555555" d="M177.78,-120.65C214.1,-112.31 272.42,-102 312.77,-96.67"/>
<polygon fill="#555555" stroke="#555555" points="313.39,-100.12 322.88,-95.39 312.52,-93.17 313.39,-100.12"/>
</g>
<!-- s2&#45;&gt;s1 -->
<g id="edge7" class="edge">
<title>s2&#45;&gt;s1</title>
<path fill="none" stroke="#555555" d="M173.33,-111.55C185.55,-103.1 199.95,-93.15 212.96,-84.16"/>
<polygon fill="#555555" stroke="#555555" points="215.03,-86.98 221.27,-78.42 211.05,-81.22 215.03,-86.98"/>
</g>
<!-- s0&#45;&gt;s2 -->
<g id="edge5" class="edge">
<title>s0&#45;&gt;s2</title>
<path fill="none" stroke="#555555" d="M324.57,-105.3C288.38,-113.63 230.2,-123.91 189.8,-129.27"/>
<polygon fill="#555555" stroke="#555555" points="189.16,-125.82 179.68,-130.55 190.04,-132.77 189.16,-125.82"/>
</g>
<!-- s0&#45;&gt;s0 -->
<g id="edge6" class="edge">
<title>s0&#45;&gt;s0</title>
<path fill="none" stroke="#555555" d="M339.07,-124.65C337.59,-137.43 344.14,-148.31 358.74,-148.31 369.23,-148.31 375.57,-142.69 377.75,-134.78"/>
<polygon fill="#555555" stroke="#555555" points="381.25,-134.86 378.41,-124.65 374.27,-134.41 381.25,-134.86"/>
</g>
<!-- s1&#45;&gt;s3 -->
<g id="edge10" class="edge">
<title>s1&#45;&gt;s3</title>
<path fill="none" stroke="#555555" d="M215.37,-63.63C178.97,-65.6 121.64,-65.77 81.8,-64.12"/>
<polygon fill="#555555" stroke="#555555" points="81.72,-60.61 71.56,-63.64 81.38,-67.6 81.72,-60.61"/>
</g>
<!-- s1&#45;&gt;s0 -->
<g id="edge4" class="edge">
<title>s1&#45;&gt;s0</title>
<path fill="none" stroke="#555555" d="M285.23,-69.79C294.67,-73 305.09,-76.55 315.02,-79.94"/>
<polygon fill="#555555" stroke="#555555" points="314.13,-83.33 324.72,-83.24 316.38,-76.7 314.13,-83.33"/>
</g>
</g>
</svg>
